<svg width="20" height="21" viewBox="0 0 20 21" fill="none" xmlns="http://www.w3.org/2000/svg">
<g clip-path="url(#clip0_0_603)">
<path d="M10.0826 19.4094C7.80071 19.4094 5.61233 18.5029 3.99882 16.8894C2.38531 15.2759 1.47886 13.0875 1.47886 10.8057C1.47886 8.52386 2.38531 6.33547 3.99882 4.72197C5.61233 3.10846 7.80071 2.202 10.0826 2.202C12.3644 2.202 14.5528 3.10846 16.1663 4.72197C17.7798 6.33547 18.6863 8.52386 18.6863 10.8057C18.6863 13.0875 17.7798 15.2759 16.1663 16.8894C14.5528 18.5029 12.3644 19.4094 10.0826 19.4094ZM10.0826 20.6385C12.6904 20.6385 15.1914 19.6025 17.0354 17.7585C18.8794 15.9145 19.9154 13.4135 19.9154 10.8057C19.9154 8.19788 18.8794 5.69687 17.0354 3.85286C15.1914 2.00885 12.6904 0.9729 10.0826 0.9729C7.47473 0.9729 4.97372 2.00885 3.12972 3.85286C1.28571 5.69687 0.249756 8.19788 0.249756 10.8057C0.249756 13.4135 1.28571 15.9145 3.12972 17.7585C4.97372 19.6025 7.47473 20.6385 10.0826 20.6385Z" fill="black"/>
<path d="M11.2257 9.07036L8.41103 9.42311L8.31024 9.89017L8.86334 9.99219C9.22469 10.0782 9.29598 10.2085 9.21732 10.5686L8.31024 14.8312C8.0718 15.9337 8.4393 16.4523 9.30336 16.4523C9.97322 16.4523 10.7512 16.1426 11.104 15.7173L11.2121 15.206C10.9663 15.4224 10.6074 15.5084 10.369 15.5084C10.031 15.5084 9.90807 15.2712 9.99534 14.8533L11.2257 9.07036ZM11.3117 6.504C11.3117 6.82998 11.1822 7.14261 10.9517 7.37311C10.7212 7.60361 10.4086 7.7331 10.0826 7.7331C9.75663 7.7331 9.444 7.60361 9.2135 7.37311C8.983 7.14261 8.8535 6.82998 8.8535 6.504C8.8535 6.17802 8.983 5.8654 9.2135 5.6349C9.444 5.4044 9.75663 5.2749 10.0826 5.2749C10.4086 5.2749 10.7212 5.4044 10.9517 5.6349C11.1822 5.8654 11.3117 6.17802 11.3117 6.504Z" fill="black"/>
</g>
<defs>
<clipPath id="clip0_0_603">
<rect width="19.6656" height="19.6656" fill="white" transform="translate(0.249756 0.9729)"/>
</clipPath>
</defs>
</svg>
