<svg width="16" height="16" viewBox="0 0 16 16" fill="none" xmlns="http://www.w3.org/2000/svg">
<path fill-rule="evenodd" clip-rule="evenodd" d="M11.354 1.64604C11.4005 1.69249 11.4375 1.74766 11.4627 1.80841C11.4879 1.86915 11.5009 1.93427 11.5009 2.00004C11.5009 2.06581 11.4879 2.13093 11.4627 2.19167C11.4375 2.25242 11.4005 2.30759 11.354 2.35404L5.70696 8.00004L11.354 13.646C11.4004 13.6925 11.4373 13.7477 11.4625 13.8085C11.4876 13.8692 11.5006 13.9343 11.5006 14C11.5006 14.0658 11.4876 14.1309 11.4625 14.1916C11.4373 14.2524 11.4004 14.3076 11.354 14.354C11.3075 14.4005 11.2523 14.4374 11.1915 14.4626C11.1308 14.4877 11.0657 14.5007 11 14.5007C10.9342 14.5007 10.8691 14.4877 10.8084 14.4626C10.7476 14.4374 10.6924 14.4005 10.646 14.354L4.64596 8.35404C4.5994 8.30759 4.56245 8.25242 4.53725 8.19167C4.51204 8.13093 4.49907 8.06581 4.49907 8.00004C4.49907 7.93427 4.51204 7.86915 4.53725 7.80841C4.56245 7.74766 4.5994 7.69248 4.64596 7.64604L10.646 1.64604C10.6924 1.59948 10.7476 1.56253 10.8083 1.53733C10.8691 1.51212 10.9342 1.49915 11 1.49915C11.0657 1.49915 11.1308 1.51212 11.1916 1.53733C11.2523 1.56253 11.3075 1.59948 11.354 1.64604Z" fill="black"/>
</svg>
