<svg width="16" height="16" viewBox="0 0 16 16" fill="none" xmlns="http://www.w3.org/2000/svg">
<path fill-rule="evenodd" clip-rule="evenodd" d="M4.64604 14.354C4.59948 14.3075 4.56253 14.2523 4.53733 14.1916C4.51212 14.1308 4.49915 14.0657 4.49915 14C4.49915 13.9342 4.51212 13.8691 4.53733 13.8083C4.56253 13.7476 4.59948 13.6924 4.64604 13.646L10.293 7.99996L4.64604 2.35396C4.59955 2.30747 4.56267 2.25228 4.53752 2.19154C4.51236 2.13081 4.49941 2.0657 4.49941 1.99996C4.49941 1.93422 4.51236 1.86912 4.53752 1.80838C4.56267 1.74764 4.59955 1.69245 4.64604 1.64596C4.69253 1.59947 4.74772 1.5626 4.80845 1.53744C4.86919 1.51228 4.93429 1.49933 5.00004 1.49933C5.06578 1.49933 5.13088 1.51228 5.19162 1.53744C5.25236 1.5626 5.30755 1.59947 5.35404 1.64596L11.354 7.64596C11.4006 7.69241 11.4375 7.74758 11.4628 7.80833C11.488 7.86907 11.5009 7.93419 11.5009 7.99996C11.5009 8.06573 11.488 8.13085 11.4628 8.19159C11.4375 8.25234 11.4006 8.30751 11.354 8.35396L5.35404 14.354C5.30759 14.4005 5.25242 14.4375 5.19167 14.4627C5.13093 14.4879 5.06581 14.5009 5.00004 14.5009C4.93427 14.5009 4.86915 14.4879 4.80841 14.4627C4.74766 14.4375 4.69248 14.4005 4.64604 14.354Z" fill="black"/>
</svg>
